<svg width="19" height="16" viewBox="0 0 19 16" fill="none" xmlns="http://www.w3.org/2000/svg">
<path d="M12.3429 12.25L14.3996 15.8125H13.0293L10.9725 12.25H8.03462L5.97787 15.8125H4.6075L6.66425 12.25H2.96875C2.81128 12.25 2.66026 12.1874 2.54891 12.0761C2.43756 11.9647 2.375 11.8137 2.375 11.6562V1.5625H1.1875C1.03003 1.5625 0.879005 1.49994 0.767655 1.38859C0.656306 1.27724 0.59375 1.12622 0.59375 0.96875C0.59375 0.811278 0.656306 0.660255 0.767655 0.548905C0.879005 0.437556 1.03003 0.375 1.1875 0.375H17.8125C17.97 0.375 18.121 0.437556 18.2323 0.548905C18.3437 0.660255 18.4062 0.811278 18.4062 0.96875C18.4062 1.12622 18.3437 1.27724 18.2323 1.38859C18.121 1.49994 17.97 1.5625 17.8125 1.5625H16.625V11.6562C16.625 11.8137 16.5624 11.9647 16.4511 12.0761C16.3397 12.1874 16.1887 12.25 16.0312 12.25H12.3429ZM15.4375 1.5625H3.5625V11.0625H15.4375V1.5625ZM6.53125 6.3125C6.68872 6.3125 6.83975 6.37506 6.95109 6.48641C7.06244 6.59775 7.125 6.74878 7.125 6.90625V8.09375C7.125 8.25122 7.06244 8.40225 6.95109 8.5136C6.83975 8.62494 6.68872 8.6875 6.53125 8.6875C6.37378 8.6875 6.22275 8.62494 6.11141 8.5136C6.00006 8.40225 5.9375 8.25122 5.9375 8.09375V6.90625C5.9375 6.74878 6.00006 6.59775 6.11141 6.48641C6.22275 6.37506 6.37378 6.3125 6.53125 6.3125ZM9.5 5.125C9.65747 5.125 9.8085 5.18756 9.91985 5.29891C10.0312 5.41025 10.0938 5.56128 10.0938 5.71875V8.09375C10.0938 8.25122 10.0312 8.40225 9.91985 8.5136C9.8085 8.62494 9.65747 8.6875 9.5 8.6875C9.34253 8.6875 9.19151 8.62494 9.08016 8.5136C8.96881 8.40225 8.90625 8.25122 8.90625 8.09375V5.71875C8.90625 5.56128 8.96881 5.41025 9.08016 5.29891C9.19151 5.18756 9.34253 5.125 9.5 5.125ZM12.4688 3.9375C12.6262 3.9375 12.7772 4.00006 12.8886 4.11141C12.9999 4.22276 13.0625 4.37378 13.0625 4.53125V8.09375C13.0625 8.25122 12.9999 8.40225 12.8886 8.5136C12.7772 8.62494 12.6262 8.6875 12.4688 8.6875C12.3113 8.6875 12.1603 8.62494 12.0489 8.5136C11.9376 8.40225 11.875 8.25122 11.875 8.09375V4.53125C11.875 4.37378 11.9376 4.22276 12.0489 4.11141C12.1603 4.00006 12.3113 3.9375 12.4688 3.9375Z" fill="#237804"/>
</svg>
